HIERARCHY
ROOT Hips
{
    OFFSET   0.000000   0.000000   0.000000
    CHANNELS 6 Xposition Yposition Zposition Zrotation Xrotation Yrotation
    JOINT Chest
    {
        OFFSET   0.000000   8.007230   0.000000
        CHANNELS 3 Zrotation Xrotation Yrotation
        JOINT Chest2
        {
            OFFSET   0.000000  22.077100   0.000000
            CHANNELS 3 Zrotation Xrotation Yrotation
            JOINT Neck
            {
                OFFSET   0.000000  23.254800  -0.000021
                CHANNELS 3 Zrotation Xrotation Yrotation
                JOINT Head
                {
                    OFFSET   0.000000  14.370000   1.956610
                    CHANNELS 3 Zrotation Xrotation Yrotation
                    End Site
                    {
                        OFFSET   0.000000  19.566000   0.000000
                    }
                }
            }
            JOINT LeftCollar
            {
                OFFSET   3.911900  19.017000  -0.467063
                CHANNELS 3 Zrotation Xrotation Yrotation
                JOINT LeftShoulder
                {
                    OFFSET  10.383700   0.000000   0.000000
                    CHANNELS 3 Zrotation Xrotation Yrotation
                    JOINT LeftElbow
                    {
                        OFFSET  26.662100   0.001529   0.000325
                        CHANNELS 3 Zrotation Xrotation Yrotation
                        JOINT LeftWrist
                        {
                            OFFSET  28.869000  -0.000011  -0.000096
                            CHANNELS 3 Zrotation Xrotation Yrotation
                            JOINT LeftFinger0
                            {
                                OFFSET   2.044650  -2.323460   3.252850
                                CHANNELS 3 Zrotation Xrotation Yrotation
                                JOINT LeftFinger01
                                {
                                    OFFSET   3.088130   0.000000   0.000000
                                    CHANNELS 3 Zrotation Xrotation Yrotation
                                    JOINT LeftFinger02
                                    {
                                        OFFSET   2.639460   0.000000   0.000000
                                        CHANNELS 3 Zrotation Xrotation Yrotation
                                        End Site
                                        {
                                            OFFSET   2.582190   0.000000   0.000000
                                        }
                                    }
                                }
                            }
                            JOINT LeftFinger1
                            {
                                OFFSET   8.364480   0.000000   3.252850
                                CHANNELS 3 Zrotation Xrotation Yrotation
                                JOINT LeftFinger11
                                {
                                    OFFSET   4.646930   0.000000   0.000000
                                    CHANNELS 3 Zrotation Xrotation Yrotation
                                    JOINT LeftFinger12
                                    {
                                        OFFSET   2.323460   0.000000   0.000000
                                        CHANNELS 3 Zrotation Xrotation Yrotation
                                        End Site
                                        {
                                            OFFSET   2.273050   0.000000   0.000000
                                        }
                                    }
                                }
                            }
                            JOINT LeftFinger2
                            {
                                OFFSET   8.364480   0.000016   1.078090
                                CHANNELS 3 Zrotation Xrotation Yrotation
                                JOINT LeftFinger21
                                {
                                    OFFSET   5.111620   0.000000   0.000000
                                    CHANNELS 3 Zrotation Xrotation Yrotation
                                    JOINT LeftFinger22
                                    {
                                        OFFSET   2.788160   0.000017   0.000000
                                        CHANNELS 3 Zrotation Xrotation Yrotation
                                        End Site
                                        {
                                            OFFSET   2.727660   0.000000   0.000000
                                        }
                                    }
                                }
                            }
                            JOINT LeftFinger3
                            {
                                OFFSET   7.899780   0.000015  -1.078090
                                CHANNELS 3 Zrotation Xrotation Yrotation
                                JOINT LeftFinger31
                                {
                                    OFFSET   4.646920   0.000000   0.000000
                                    CHANNELS 3 Zrotation Xrotation Yrotation
                                    JOINT LeftFinger32
                                    {
                                        OFFSET   2.323470   0.000000   0.000000
                                        CHANNELS 3 Zrotation Xrotation Yrotation
                                        End Site
                                        {
                                            OFFSET   2.273050   0.000000   0.000000
                                        }
                                    }
                                }
                            }
                            JOINT LeftFinger4
                            {
                                OFFSET   7.435090   0.000000  -3.252850
                                CHANNELS 3 Zrotation Xrotation Yrotation
                                JOINT LeftFinger41
                                {
                                    OFFSET   3.717550   0.000000   0.000000
                                    CHANNELS 3 Zrotation Xrotation Yrotation
                                    JOINT LeftFinger42
                                    {
                                        OFFSET   1.858760   0.000000   0.000000
                                        CHANNELS 3 Zrotation Xrotation Yrotation
                                        End Site
                                        {
                                            OFFSET   1.818440   0.000000   0.000000
                                        }
                                    }
                                }
                            }
                        }
                    }
                }
            }
            JOINT RightCollar
            {
                OFFSET  -3.911900  19.017000  -0.467062
                CHANNELS 3 Zrotation Xrotation Yrotation
                JOINT RightShoulder
                {
                    OFFSET -10.383700   0.000015   0.000000
                    CHANNELS 3 Zrotation Xrotation Yrotation
                    JOINT RightElbow
                    {
                        OFFSET -26.662100   0.001341   0.000385
                        CHANNELS 3 Zrotation Xrotation Yrotation
                        JOINT RightWrist
                        {
                            OFFSET -28.869000   0.000025  -0.000080
                            CHANNELS 3 Zrotation Xrotation Yrotation
                            JOINT RightFinger0
                            {
                                OFFSET  -2.044650  -2.323490   3.252850
                                CHANNELS 3 Zrotation Xrotation Yrotation
                                JOINT RightFinger01
                                {
                                    OFFSET  -3.088130   0.000000   0.000000
                                    CHANNELS 3 Zrotation Xrotation Yrotation
                                    JOINT RightFinger02
                                    {
                                        OFFSET  -2.639460   0.000000   0.000000
                                        CHANNELS 3 Zrotation Xrotation Yrotation
                                        End Site
                                        {
                                            OFFSET  -2.582190   0.000000   0.000000
                                        }
                                    }
                                }
                            }
                            JOINT RightFinger1
                            {
                                OFFSET  -8.364480   0.000000   3.252850
                                CHANNELS 3 Zrotation Xrotation Yrotation
                                JOINT RightFinger11
                                {
                                    OFFSET  -4.646930   0.000000   0.000000
                                    CHANNELS 3 Zrotation Xrotation Yrotation
                                    JOINT RightFinger12
                                    {
                                        OFFSET  -2.323470   0.000000   0.000000
                                        CHANNELS 3 Zrotation Xrotation Yrotation
                                        End Site
                                        {
                                            OFFSET  -2.273050   0.000000   0.000000
                                        }
                                    }
                                }
                            }
                            JOINT RightFinger2
                            {
                                OFFSET  -8.364480   0.000000   1.078090
                                CHANNELS 3 Zrotation Xrotation Yrotation
                                JOINT RightFinger21
                                {
                                    OFFSET  -5.111610   0.000000   0.000000
                                    CHANNELS 3 Zrotation Xrotation Yrotation
                                    JOINT RightFinger22
                                    {
                                        OFFSET  -2.788160   0.000000   0.000000
                                        CHANNELS 3 Zrotation Xrotation Yrotation
                                        End Site
                                        {
                                            OFFSET  -2.727660   0.000000   0.000000
                                        }
                                    }
                                }
                            }
                            JOINT RightFinger3
                            {
                                OFFSET  -7.899780   0.000000  -1.078090
                                CHANNELS 3 Zrotation Xrotation Yrotation
                                JOINT RightFinger31
                                {
                                    OFFSET  -4.646920   0.000000   0.000000
                                    CHANNELS 3 Zrotation Xrotation Yrotation
                                    JOINT RightFinger32
                                    {
                                        OFFSET  -2.323470   0.000000   0.000000
                                        CHANNELS 3 Zrotation Xrotation Yrotation
                                        End Site
                                        {
                                            OFFSET  -2.273050   0.000000   0.000000
                                        }
                                    }
                                }
                            }
                            JOINT RightFinger4
                            {
                                OFFSET  -7.435090   0.000000  -3.252850
                                CHANNELS 3 Zrotation Xrotation Yrotation
                                JOINT RightFinger41
                                {
                                    OFFSET  -3.717550   0.000000   0.000000
                                    CHANNELS 3 Zrotation Xrotation Yrotation
                                    JOINT RightFinger42
                                    {
                                        OFFSET  -1.858770   0.000000   0.000000
                                        CHANNELS 3 Zrotation Xrotation Yrotation
                                        End Site
                                        {
                                            OFFSET  -1.818440   0.000000   0.000000
                                        }
                                    }
                                }
                            }
                        }
                    }
                }
            }
        }
    }
    JOINT LeftHip
    {
        OFFSET   9.783010   0.000000   0.000000
        CHANNELS 3 Zrotation Xrotation Yrotation
        JOINT LeftKnee
        {
            OFFSET   0.000070 -41.789100   0.000028
            CHANNELS 3 Zrotation Xrotation Yrotation
            JOINT LeftAnkle
            {
                OFFSET   0.000087 -41.133200  -0.000100
                CHANNELS 3 Zrotation Xrotation Yrotation
                JOINT LeftToe
                {
                    OFFSET   0.000000  -6.358960  14.674500
                    CHANNELS 3 Zrotation Xrotation Yrotation
                    End Site
                    {
                        OFFSET   0.000000   0.000000   3.913200
                    }
                }
            }
        }
    }
    JOINT RightHip
    {
        OFFSET  -9.783020   0.000000   0.000000
        CHANNELS 3 Zrotation Xrotation Yrotation
        JOINT RightKnee
        {
            OFFSET   0.000044 -41.789100  -0.000870
            CHANNELS 3 Zrotation Xrotation Yrotation
            JOINT RightAnkle
            {
                OFFSET  -0.000090 -41.133200  -0.000245
                CHANNELS 3 Zrotation Xrotation Yrotation
                JOINT RightToe
                {
                    OFFSET   0.000000  -6.358960  14.674500
                    CHANNELS 3 Zrotation Xrotation Yrotation
                    End Site
                    {
                        OFFSET   0.000000   0.000000   3.913200
                    }
                }
            }
        }
    }
}
MOTION
Frames: 5
Frame Time:   0.016667
 -0.112892  90.121500   0.195489  -1.925060  -1.014980  -0.652973  -0.003570   1.653420  -0.767909   0.015059   3.306740  -1.536680   2.236830   0.159881  -0.014339   3.674880   0.322966   5.606980  -3.289110   0.786566   3.943160 -72.482600  13.575700   1.059050  -3.681320  -5.247930 -14.999200  14.392800  -0.822881  10.254500  39.268400  23.974300 -63.227600 -18.703400   0.003866   0.011512  -4.351720   0.000000   0.004987 -30.825900   8.791990 -14.366800 -26.129500  -0.001519   0.000166 -18.290700   0.002716  -0.000627 -28.744700   0.108601  -0.198026 -39.919400  -0.001903  -0.001945 -26.586300   0.005152  -0.003470 -27.119900   0.102979  -0.201013 -27.490200   0.003563   0.005094 -18.308500   0.005345   0.006706 -30.561700   0.114851  -0.194467 -45.842800  -0.000342   0.005044 -30.531300  -0.001013   0.005349   8.791340   2.750330   4.060710  70.703100   6.688950   0.388355   1.982970  -4.008640  12.253100 -16.803300 -13.146200   3.581880 -33.950600  25.832200  62.620200  33.042900   0.001921  -0.001186  11.522600   0.002268  -0.003488  28.849500   0.668057   1.212450  23.609900  -0.004138   0.002334  16.535300   0.002774   0.002052  28.782900   0.666607   1.213250  41.757400  -0.005195   0.009737  27.810400   0.000980   0.008852  28.334300  -0.438799  -0.828108  34.475700  -0.005708   0.000073  22.960800  -0.003420  -0.000213  39.054700  -0.803848  -0.990592  58.592500  -0.000967   0.001165  39.022600   0.000744  -0.004087   1.744330   1.614480   0.335701   0.721156   0.343175  12.222200  -5.558010  -2.911130   4.854560   0.000000   0.000000  -0.000000   3.133570  -0.401937  -8.002810  -2.601510   4.270860  -6.812050  -9.043180   0.814642   1.119460  -0.000000   0.000000   0.000000
 -0.116568  90.121500   0.209720  -1.932130  -1.032350  -0.657442  -0.002325   1.672940  -0.763661   0.017685   3.345770  -1.528260   2.247030   0.192674  -0.014296   3.691640   0.388666   5.624160  -3.288390   0.775487   3.947800 -72.463300  13.603400   1.028330  -3.685590  -5.267060 -14.988900  14.406600  -0.811494  10.272800  39.279400  23.981500 -63.223300 -18.788500   0.003866   0.011515  -4.394290   0.000000   0.004981 -30.851200   8.769110 -14.322600 -26.144700  -0.001517   0.000167 -18.301300   0.002719  -0.000627 -28.744600   0.098553  -0.179688 -39.963000  -0.001901  -0.001943 -26.615300   0.005149  -0.003465 -27.126100   0.093466  -0.182395 -27.516000   0.003567   0.005104 -18.325600   0.005356   0.006713 -30.562900   0.104241  -0.176464 -45.844600  -0.000340   0.005053 -30.532500  -0.001016   0.005354   8.787190   2.741910   4.078220  70.693100   6.721660   0.402946   1.996420  -4.019610  12.252900 -16.773300 -13.151500   3.600860 -33.954500  25.838600  62.626300  33.039100   0.001914  -0.001153  11.520200   0.002268  -0.003483  28.850700   0.673198   1.221630  23.611000  -0.004080   0.002272  16.533200   0.002767   0.002004  28.782600   0.671685   1.222480  41.770000  -0.004910   0.009657  27.818800   0.000920   0.008770  28.334000  -0.438528  -0.826995  34.502300  -0.005477   0.000071  22.978500  -0.003307  -0.000212  39.068800  -0.807808  -0.994976  58.613800  -0.000968   0.001164  39.036800   0.000747  -0.004149   1.753270   1.648280   0.335549   0.716577   0.335392  12.228900  -5.557590  -2.920920   4.852530   0.000000   0.000000  -0.000000   3.141870  -0.376059  -8.000270  -2.596220   4.270340  -6.815930  -9.049670   0.810406   1.125480   0.000000   0.000000   0.000000
 -0.123272  90.121500   0.234567  -1.945410  -1.068570  -0.665577   0.000981   1.709110  -0.759419   0.024676   3.418060  -1.519890   2.264260   0.250209  -0.014254   3.719960   0.504204   5.652870  -3.287110   0.755073   3.958170 -72.430100  13.661700   0.974988  -3.693270  -5.302910 -14.968200  14.431000  -0.784961  10.305400  39.300800  23.997900 -63.219200 -18.939000   0.003867   0.011522  -4.469520   0.000000   0.004967 -30.890900   8.746860 -14.261500 -26.171400  -0.001509   0.000173 -18.319900   0.002723  -0.000627 -28.744600   0.082069  -0.149610 -40.038100  -0.001896  -0.001937 -26.665300   0.005142  -0.003453 -27.137700   0.077860  -0.151856 -27.564800   0.003579   0.005128 -18.358100   0.005387   0.006729 -30.571400   0.086836  -0.146925 -45.857200  -0.000333   0.005075 -30.540900  -0.001024   0.005366   8.779230   2.725320   4.110950  70.674700   6.782120   0.429488   2.018850  -4.039810  12.252900 -16.725300 -13.159600   3.634200 -33.966000  25.853200  62.639900  33.029600   0.001907  -0.001120  11.514800   0.002268  -0.003479  28.851700   0.683897   1.241070  23.612000  -0.004022   0.002171  16.528400   0.002748   0.001926  28.782100   0.682377   1.241920  41.788100  -0.004626   0.009577  27.830800   0.000800   0.008688  28.333700  -0.438257  -0.825178  34.542500  -0.005245   0.000070  23.005300  -0.003193  -0.000211  39.094300  -0.814972  -1.002890  58.652200  -0.000970   0.001163  39.062400   0.000749  -0.004254   1.770250   1.716040   0.335403   0.708740   0.314690  12.241300  -5.558140  -2.933850   4.847400  -0.000000   0.000000  -0.000000   3.157800  -0.326968  -7.994080  -2.590190   4.269790  -6.823670  -9.060180   0.801940   1.134010   0.000000   0.000000   0.000000
 -0.129399  90.121500   0.256348  -1.958770  -1.111800  -0.673437   0.005961   1.745490  -0.759450   0.035145   3.490750  -1.520070   2.278550   0.301733  -0.014273   3.743550   0.608279   5.675710  -3.290640   0.735103   3.969810 -72.398000  13.728600   0.929076  -3.700380  -5.339420 -14.946900  14.452400  -0.749727  10.336000  39.323900  24.023300 -63.224300 -19.072800   0.003861   0.011524  -4.536420   0.000000   0.004949 -30.920000   8.747690 -14.241900 -26.194400  -0.001492   0.000184 -18.336000   0.002726  -0.000632 -28.745500   0.069774  -0.127181 -40.104200  -0.001889  -0.001928 -26.709400   0.005131  -0.003435 -27.150400   0.066222  -0.129081 -27.618200   0.003597   0.005163 -18.393700   0.005434   0.006755 -30.595800   0.073862  -0.124875 -45.893700  -0.000322   0.005110 -30.565300  -0.001038   0.005384   8.770770   2.706890   4.144430  70.656500   6.841950   0.455450   2.037560  -4.060300  12.254900 -16.689200 -13.162900   3.665280 -33.982800  25.879000  62.655900  33.013800   0.001907  -0.001150  11.506800   0.002268  -0.003483  28.840700   0.698399   1.268060  23.603200  -0.004145   0.002074  16.520900   0.002721   0.001849  28.781500   0.697119   1.268770  41.792400  -0.006735   0.009597  27.833600   0.000645   0.008709  28.335500  -0.439380  -0.823477  34.561300  -0.005304   0.000071  23.017700  -0.003221  -0.000213  39.115400  -0.820910  -1.009430  58.684000  -0.000972   0.001164  39.083500   0.000746  -0.004359   1.787160   1.794540   0.336332   0.702504   0.278139  12.254900  -5.560410  -2.935970   4.839520  -0.000000   0.000000   0.000000   3.173290  -0.277642  -7.984150  -2.588570   4.273870  -6.832580  -9.067630   0.792136   1.136690  -0.000000   0.000000  -0.000000
 -0.137118  90.121500   0.280408  -1.974800  -1.165850  -0.682299   0.012697   1.786570  -0.759584   0.049127   3.572830  -1.520690   2.293050   0.357811  -0.014410   3.767540   0.721690   5.699230  -3.298540   0.711886   3.988960 -72.371000  13.820700   0.878094  -3.704820  -5.381630 -14.915300  14.477700  -0.701721  10.368100  39.346600  24.047700 -63.229900 -19.225900   0.003847   0.011529  -4.612980   0.000000   0.004925 -30.953800   8.748550 -14.229900 -26.221000  -0.001468   0.000201 -18.354700   0.002729  -0.000639 -28.747200   0.057116  -0.104098 -40.171300  -0.001879  -0.001915 -26.754100   0.005117  -0.003412 -27.163700   0.054233  -0.105645 -27.674300   0.003620   0.005208 -18.431100   0.005498   0.006788 -30.622800   0.060498  -0.102185 -45.934200  -0.000308   0.005155 -30.592200  -0.001056   0.005408   8.760870   2.684970   4.182580  70.637100   6.910900   0.483965   2.055100  -4.082420  12.259800 -16.659400 -13.168300   3.696830 -34.005700  25.908200  62.667400  32.997100   0.001907  -0.001179  11.498500   0.002267  -0.003500  28.825600   0.712528   1.294450  23.591200  -0.004419   0.002017  16.513900   0.002688   0.001803  28.780900   0.711519   1.295000  41.800700  -0.010337   0.009737  27.839200   0.000503   0.008854  28.339500  -0.443630  -0.822480  34.584600  -0.005713   0.000072  23.033300  -0.003416  -0.000215  39.145700  -0.829481  -1.018840  58.729700  -0.000973   0.001166  39.114000   0.000743  -0.004422   1.808420   1.886220   0.340861   0.695114   0.239829  12.267600  -5.565570  -2.938090   4.829810  -0.000000   0.000000   0.000000   3.194660  -0.216228  -7.973560  -2.586910   4.279770  -6.842930  -9.075350   0.780811   1.139560  -0.000000   0.000000   0.000000
